<?xml version="1.0" encoding="iso-8859-1"?>
<!-- Generator: Adobe Illustrator 19.0.0, SVG Export Plug-In . SVG Version: 6.00 Build 0)  -->
<svg version="1.1" id="Layer_1" xmlns="http://www.w3.org/2000/svg" xmlns:xlink="http://www.w3.org/1999/xlink" x="0px" y="0px"
	 viewBox="0 0 512.002 512.002" style="enable-background:new 0 0 512.002 512.002;" xml:space="preserve">
<g>
	<path style="fill:#A88964;" d="M238.276,207.304c0,0-31.806-21.778-34.984-63.691c-0.291-3.778-3.257-6.78-7.053-6.78H33.573
		c-3.919,0-7.089,3.169-7.089,7.089c0,35.16-6.338,69.923-17.434,103.292c-7.592,22.846-12.959,51.633-4.025,75.352
		c23.658-0.247,84.445,0.018,206.839,8.324c249.379,16.922,300.138-17.655,300.138-17.655
		C492.14,270.571,322.209,283.071,238.276,207.304l0.071,0.15"/>
	<g>
		<path style="fill:#DFCFC0;" d="M242.388,256.222c-2.26,0-4.52-0.865-6.241-2.586c-3.452-3.452-3.452-9.039,0-12.482l28.619-28.619
			c3.452-3.443,9.039-3.443,12.482,0c3.452,3.452,3.452,9.039,0,12.482l-28.619,28.619
			C246.908,255.357,244.648,256.222,242.388,256.222"/>
		<path style="fill:#DFCFC0;" d="M273.655,269.097c-2.26,0-4.52-0.865-6.241-2.586c-3.452-3.452-3.452-9.031,0-12.482l26.306-26.306
			c3.452-3.452,9.039-3.452,12.491,0c3.443,3.443,3.443,9.031,0,12.482l-26.315,26.306
			C278.175,268.232,275.915,269.097,273.655,269.097"/>
		<path style="fill:#DFCFC0;" d="M303.819,283.075c-2.26,0-4.52-0.865-6.241-2.586c-3.452-3.443-3.452-9.031,0-12.482l28.089-28.098
			c3.443-3.443,9.031-3.443,12.482,0c3.443,3.443,3.443,9.039,0,12.482l-28.089,28.098
			C308.339,282.21,306.079,283.075,303.819,283.075"/>
	</g>
	<path style="fill:#5E4A35;" d="M0,322.937v43.185c0,0,212.921,4.661,350.835,8.828c83.924,2.534,127.514-16.702,148.824-32.026
		C511.347,334.51,512,326.812,512,313.377c-0.512,0.609-1.713,1.156-3.443,1.668c-14.716,6.877-82.229,30.393-296.695,15.846
		c-122.394-8.307-183.181-8.572-206.839-8.324L0,322.937z"/>
	<g>
		<path style="fill:#795F43;" d="M408.379,274.602c-7.565,8.183-18.026,13.665-29.987,14.442
			c-43.988,2.842-107.414,12.588-115.509,44.721c205.321,9.19,249.114-20.533,249.114-20.533
			C502.622,293.095,459.8,285.248,408.379,274.602"/>
		<path style="fill:#795F43;" d="M203.293,143.614c-0.291-3.778-3.257-6.788-7.053-6.788h-65.448
			c-35.487,22.06-70.479,39.662-81.117,36.89c-7.539-1.96-15.757-3.893-24.223-5.623c-1.721,21.327-5.685,42.417-11.502,63.047
			c0.75,0.335,1.545,0.715,2.295,1.05c14.433,6.382,30.579,6.294,45.453,0.989c27.048-9.622,72.369-1.324,105.366,7.265
			c7.071,1.845,38.188-14.265,70.983-33.306C235.664,205.443,206.347,183.824,203.293,143.614"/>
	</g>
</g>
<g>
</g>
<g>
</g>
<g>
</g>
<g>
</g>
<g>
</g>
<g>
</g>
<g>
</g>
<g>
</g>
<g>
</g>
<g>
</g>
<g>
</g>
<g>
</g>
<g>
</g>
<g>
</g>
<g>
</g>
</svg>
