<?xml version="1.0" encoding="iso-8859-1"?>
<!-- Generator: Adobe Illustrator 19.0.0, SVG Export Plug-In . SVG Version: 6.00 Build 0)  -->
<svg version="1.1" id="Layer_1" xmlns="http://www.w3.org/2000/svg" xmlns:xlink="http://www.w3.org/1999/xlink" x="0px" y="0px"
	 viewBox="0 0 503.619 503.619" style="enable-background:new 0 0 503.619 503.619;" xml:space="preserve">
<g transform="translate(0 -1)">
	<path style="fill:#C03A2B;" d="M173.559,87.966c0,0-41.22-2.169-52.068,26.034H17.356C7.775,114,0,121.776,0,131.356v251.626
		h503.322c0,0,12.297-69.424-121.492-69.424C381.831,313.559,173.559,324.267,173.559,87.966"/>
	<g>
		<path style="fill:#DEDEE1;" d="M52.068,339.589c0,4.79-3.879,8.678-8.678,8.678s-8.678-3.888-8.678-8.678
			c0-4.79,3.879-8.678,8.678-8.678S52.068,334.799,52.068,339.589"/>
		<path style="fill:#DEDEE1;" d="M95.458,339.589c0,4.79-3.879,8.678-8.678,8.678s-8.678-3.888-8.678-8.678
			c0-4.79,3.879-8.678,8.678-8.678S95.458,334.799,95.458,339.589"/>
	</g>
	<polygon style="fill:#F0C419;" points="69.424,148.674 80.827,167.687 104.136,171.393 87.882,189.382 92.238,212.821 
		69.424,200.742 46.609,212.821 50.966,189.382 34.712,171.393 58.021,167.687 	"/>
	<path style="fill:#ACAAAF;" d="M477.288,417.691H26.034C11.655,417.691,0,406.036,0,391.657v-8.678h503.322v8.678
		C503.322,406.036,491.668,417.691,477.288,417.691"/>
	<g>
		<path style="fill:#DEDEE1;" d="M381.831,313.555c0,0-15.889,0.79-38.851-2.994l30.173,72.418h130.169
			C503.322,382.979,515.619,313.555,381.831,313.555"/>
		<path style="fill:#DEDEE1;" d="M174.449,122.656h-18.25c-4.79,0-8.678-3.888-8.678-8.678s3.888-8.678,8.678-8.678h18.25
			c4.799,0,8.678,3.888,8.678,8.678S179.248,122.656,174.449,122.656"/>
		<path style="fill:#DEDEE1;" d="M201.339,294.453c-2.222,0-4.443-0.85-6.135-2.543c-3.393-3.384-3.393-8.878,0-12.271
			l30.165-30.165c3.384-3.393,8.878-3.393,12.271,0c3.384,3.384,3.384,8.878,0,12.271l-30.165,30.165
			C205.782,293.603,203.561,294.453,201.339,294.453"/>
		<path style="fill:#DEDEE1;" d="M286.06,349.483c-1.033,0-2.083-0.182-3.107-0.581c-4.478-1.718-6.717-6.734-4.999-11.212
			l15.716-40.925c1.71-4.469,6.725-6.717,11.212-4.99c4.478,1.718,6.708,6.734,4.99,11.212l-15.707,40.925
			C292.837,347.357,289.539,349.483,286.06,349.483"/>
		<path style="fill:#DEDEE1;" d="M151.178,221.458c-3.332,0-6.5-1.918-7.94-5.155c-1.944-4.382,0.026-9.502,4.408-11.455
			l40.821-18.172c4.391-1.927,9.511,0.026,11.455,4.4c1.944,4.382-0.026,9.511-4.408,11.455l-40.821,18.172
			C153.547,221.215,152.358,221.458,151.178,221.458"/>
	</g>
</g>
<g>
</g>
<g>
</g>
<g>
</g>
<g>
</g>
<g>
</g>
<g>
</g>
<g>
</g>
<g>
</g>
<g>
</g>
<g>
</g>
<g>
</g>
<g>
</g>
<g>
</g>
<g>
</g>
<g>
</g>
</svg>
